<svg xmlns="http://www.w3.org/2000/svg" xmlns:xlink="http://www.w3.org/1999/xlink" width="352.245" height="406.729" viewBox="0 0 352.245 406.729"><defs><style>.a{opacity:0.4;isolation:isolate;fill:url(#a);}.b{fill:url(#b);}.c{fill:url(#c);}.d{fill:url(#d);}.e{fill:url(#e);}.f{fill:url(#f);}.g{fill:url(#g);}.h{fill:url(#h);}.i{fill:url(#i);}.j{fill:url(#j);}.k{fill:url(#k);}.l{fill:url(#l);}.m{fill:#fff;}</style><linearGradient id="a" x1="-0.237" y1="-0.134" x2="0.771" y2="0.734" gradientUnits="objectBoundingBox"><stop offset="0" stop-color="#fff"/><stop offset="1" stop-color="#b3d1ea"/></linearGradient><linearGradient id="b" x1="-0.211" y1="0.335" x2="0.388" y2="0.474" gradientUnits="objectBoundingBox"><stop offset="0" stop-color="#428ccb"/><stop offset="1" stop-color="#214666"/></linearGradient><linearGradient id="c" y1="0.5" x2="1" y2="0.5" gradientUnits="objectBoundingBox"><stop offset="0" stop-color="#b3d1ea"/><stop offset="1" stop-color="#428ccb"/></linearGradient><linearGradient id="d" x1="-0.542" y1="-0.292" x2="3.17" y2="2.529" xlink:href="#b"/><linearGradient id="e" x1="0.226" y1="0.291" x2="3.938" y2="3.113" xlink:href="#b"/><linearGradient id="f" x1="-1.076" y1="-0.698" x2="2.637" y2="2.124" xlink:href="#b"/><linearGradient id="g" x1="-0.159" y1="-0.001" x2="3.554" y2="2.821" xlink:href="#b"/><linearGradient id="h" x1="-0.809" y1="-0.495" x2="2.904" y2="2.327" xlink:href="#b"/><linearGradient id="i" x1="-1.46" y1="-0.99" x2="2.253" y2="1.832" xlink:href="#b"/><linearGradient id="j" x1="-1.844" y1="-1.282" x2="1.869" y2="1.54" xlink:href="#b"/><linearGradient id="k" x1="-1.193" y1="-0.787" x2="2.519" y2="2.035" xlink:href="#b"/><linearGradient id="l" x1="-0.425" y1="-0.203" x2="3.288" y2="2.619" xlink:href="#b"/></defs><g transform="translate(-2069.963 -8615.458)"><path class="a" d="M2416.7,8917.327v-197.01l-171.773-98.5-169.458,98.5v197.01l169.458,98.5Z"/><path class="b" d="M2389.868,8886.177l-144.812,84.156-145.807-84.182L2244.062,8802Z"/><path class="c" d="M2389.868,8837.837l-144.812,84.157-145.807-84.184,144.813-84.155Z"/><path class="d" d="M2286.352,8729.573l-41.724,24.247-42-24.247,41.724-24.247Z"/><path class="e" d="M2183.2,8789.518l-41.722,24.247-42-24.247,41.724-24.248Z"/><path class="f" d="M2286.89,8849.391l-41.724,24.247-42-24.247,41.724-24.247Z"/><path class="g" d="M2234.783,8759.545l-41.724,24.247-42-24.247,41.724-24.247Z"/><path class="h" d="M2286.621,8789.478l-41.724,24.247-41.985-24.24,41.722-24.247Z"/><path class="i" d="M2338.477,8819.408l-41.724,24.247-42-24.247,41.724-24.247Z"/><path class="j" d="M2390.055,8789.447l-41.722,24.242-42-24.242,41.724-24.247Z"/><path class="k" d="M2338.2,8759.506l-41.724,24.247-41.985-24.24,41.722-24.247Z"/><path class="l" d="M2235.044,8819.452l-41.728,24.247-41.985-24.241,41.724-24.247Z"/><path class="m" d="M2244.908,9022.187,2069.963,8920.5V8717.15l174.945-101.692,177.3,101.67v203.389Zm-163.937-108.027,163.974,95.319,166.25-95.34V8723.507l-166.25-95.341-163.974,95.319Z"/><path class="m" d="M2244.9,8825.559l-170.087-99.637,5.563-9.5,164.568,96.406,168.649-97.188,5.5,9.537Z"/><rect class="m" width="11.008" height="199.627" transform="translate(2239.42 8816.803)"/></g></svg>